<svg version="1.1" id="Layer_1" xmlns="http://www.w3.org/2000/svg" xmlns:xlink="http://www.w3.org/1999/xlink" x="0px" y="0px"
	 width="100%" viewBox="0 0 512 512" enable-background="new 0 0 512 512" xml:space="preserve">
<path fill="#FFFFFF" opacity="1.000000" stroke="none" 
	d="
M246.000000,513.000000 
	C164.378174,513.000000 82.756363,513.000000 1.067269,513.000000 
	C1.067269,342.333344 1.067269,171.666672 1.067269,1.000000 
	C14.076913,1.000000 27.069798,1.000000 40.539860,1.361462 
	C53.252804,19.599136 65.516899,37.456039 77.718124,55.355793 
	C99.558479,87.396591 121.344597,119.474365 143.187485,151.513443 
	C151.721588,164.031219 160.347702,176.486267 168.614960,189.103485 
	C158.766769,196.778717 148.270615,203.399185 139.959229,212.105362 
	C130.499878,222.014053 122.488388,233.442459 114.740471,244.818451 
	C99.230713,267.590881 91.545288,293.483246 89.301613,320.526154 
	C87.095894,347.111572 90.061539,373.329590 99.680763,398.799866 
	C111.093834,429.019989 129.143097,454.062225 153.942978,474.368195 
	C174.855560,491.491302 198.687271,502.899078 225.023590,508.962738 
	C231.957977,510.559326 239.004807,511.667511 246.000000,513.000000 
z"/>
<path fill="#FFFFFF" opacity="1.000000" stroke="none" 
	d="
M473.000000,1.000001 
	C486.325867,1.000000 499.651733,1.000000 512.983154,1.000000 
	C512.988770,171.563583 512.988770,342.127167 512.988770,513.000000 
	C436.979370,513.000000 360.958344,513.000000 284.680573,512.648804 
	C287.514648,511.865875 290.604187,511.424774 293.696472,511.003784 
	C308.749207,508.954315 323.218262,504.593658 336.963379,498.376404 
	C358.577820,488.599670 377.688232,475.173065 393.996735,457.686676 
	C404.653503,446.260193 413.546478,433.693329 420.900330,420.057190 
	C431.447693,400.499542 437.790497,379.562500 440.085785,357.400299 
	C442.109161,337.864197 441.755585,318.394196 437.517609,299.227478 
	C432.106598,274.755646 422.130859,252.238907 407.068268,232.016068 
	C398.254425,220.182678 388.421265,209.350876 376.756042,200.387482 
	C368.188080,193.803955 358.964294,188.073883 350.121643,181.632202 
	C353.719604,176.417435 357.333038,171.605042 360.720306,166.638458 
	C378.194824,141.016708 395.588898,115.340103 413.054993,89.712624 
	C428.334747,67.293144 443.709900,44.938660 458.963287,22.501320 
	C463.774445,15.424138 468.328339,8.172035 473.000000,1.000001 
z"/>
<path fill="#ED9D5D" opacity="1.000000" stroke="none" 
	d="
M350.032776,181.963440 
	C358.964294,188.073883 368.188080,193.803955 376.756042,200.387482 
	C388.421265,209.350876 398.254425,220.182678 407.068268,232.016068 
	C422.130859,252.238907 432.106598,274.755646 437.517609,299.227478 
	C441.755585,318.394196 442.109161,337.864197 440.085785,357.400299 
	C437.790497,379.562500 431.447693,400.499542 420.900330,420.057190 
	C413.546478,433.693329 404.653503,446.260193 393.996735,457.686676 
	C377.688232,475.173065 358.577820,488.599670 336.963379,498.376404 
	C323.218262,504.593658 308.749207,508.954315 293.696472,511.003784 
	C290.604187,511.424774 287.514648,511.865875 284.211914,512.648804 
	C271.645782,513.000000 259.291534,513.000000 246.468658,513.000000 
	C239.004807,511.667511 231.957977,510.559326 225.023590,508.962738 
	C198.687271,502.899078 174.855560,491.491302 153.942978,474.368195 
	C129.143097,454.062225 111.093834,429.019989 99.680763,398.799866 
	C90.061539,373.329590 87.095894,347.111572 89.301613,320.526154 
	C91.545288,293.483246 99.230713,267.590881 114.740471,244.818451 
	C122.488388,233.442459 130.499878,222.014053 139.959229,212.105362 
	C148.270615,203.399185 158.766769,196.778717 168.947754,188.996552 
	C175.246597,185.607956 180.760834,182.181671 186.570648,179.365128 
	C202.586456,171.600815 219.299652,165.809525 237.023926,163.569717 
	C246.832932,162.330154 256.740814,161.172348 266.598358,161.218292 
	C276.104980,161.262604 285.604187,162.902008 295.507690,163.884705 
	C307.889862,167.421967 319.943085,170.690277 331.822540,174.500351 
	C338.049866,176.497665 343.972534,179.445099 350.032776,181.963440 
M139.454605,312.127167 
	C138.638458,318.353210 137.308899,324.562408 137.103577,330.808533 
	C136.515076,348.712158 139.261703,366.073486 145.771027,382.913055 
	C157.162964,412.383942 176.930893,434.513336 204.370209,449.547607 
	C230.722107,463.986145 259.144775,468.324646 288.672607,462.783813 
	C318.471985,457.192017 343.617950,442.547699 362.879486,419.294373 
	C388.408661,388.474457 397.982452,352.639496 390.699371,313.179749 
	C384.906067,281.791443 368.924652,255.865814 343.627747,236.298691 
	C316.961334,215.672272 286.717804,206.510757 252.839661,209.897995 
	C232.825333,211.899094 214.379578,217.861588 197.361740,228.725647 
	C166.658386,248.326385 147.507919,275.805420 139.454605,312.127167 
z"/>
<path fill="#E2574C" opacity="1.000000" stroke="none" 
	d="
M295.106628,163.840637 
	C285.604187,162.902008 276.104980,161.262604 266.598358,161.218292 
	C256.740814,161.172348 246.832932,162.330154 237.023926,163.569717 
	C219.299652,165.809525 202.586456,171.600815 186.570648,179.365128 
	C180.760834,182.181671 175.246597,185.607956 169.264694,188.862961 
	C160.347702,176.486267 151.721588,164.031219 143.187485,151.513443 
	C121.344597,119.474365 99.558479,87.396591 77.718124,55.355793 
	C65.516899,37.456039 53.252804,19.599136 41.008518,1.361462 
	C89.020897,1.000000 137.041794,1.000000 185.630463,1.333386 
	C187.375687,3.230910 188.620285,4.749341 189.720551,6.366019 
	C207.231659,32.095928 224.685623,57.864830 242.246597,83.560638 
	C247.014420,90.537086 252.092422,97.301552 257.024658,104.522919 
	C257.908112,106.621956 258.621246,108.479233 259.708710,110.082596 
	C270.489716,125.977867 281.360565,141.812225 292.120544,157.721619 
	C293.379486,159.583023 294.123749,161.792526 295.106628,163.840637 
z"/>
<path fill="#BF392C" opacity="1.000000" stroke="none" 
	d="
M295.507690,163.884705 
	C294.123749,161.792526 293.379486,159.583023 292.120544,157.721619 
	C281.360565,141.812225 270.489716,125.977867 259.708710,110.082596 
	C258.621246,108.479233 257.908112,106.621956 257.338867,104.366104 
	C263.458344,95.441170 269.251617,87.026749 275.063934,78.625504 
	C283.473297,66.470406 291.970306,54.375172 300.294128,42.161846 
	C309.608490,28.495117 318.771271,14.725085 328.000000,1.000002 
	C376.020905,1.000000 424.041779,1.000000 472.531342,1.000001 
	C468.328339,8.172035 463.774445,15.424138 458.963287,22.501320 
	C443.709900,44.938660 428.334747,67.293144 413.054993,89.712624 
	C395.588898,115.340103 378.194824,141.016708 360.720306,166.638458 
	C357.333038,171.605042 353.719604,176.417435 350.121643,181.632202 
	C343.972534,179.445099 338.049866,176.497665 331.822540,174.500351 
	C319.943085,170.690277 307.889862,167.421967 295.507690,163.884705 
z"/>
<path fill="#FFFFFF" opacity="1.000000" stroke="none" 
	d="
M327.531342,1.000002 
	C318.771271,14.725085 309.608490,28.495117 300.294128,42.161846 
	C291.970306,54.375172 283.473297,66.470406 275.063934,78.625504 
	C269.251617,87.026749 263.458344,95.441170 257.342285,104.006500 
	C252.092422,97.301552 247.014420,90.537086 242.246597,83.560638 
	C224.685623,57.864830 207.231659,32.095928 189.720551,6.366019 
	C188.620285,4.749341 187.375687,3.230910 186.099121,1.333386 
	C233.020889,1.000000 280.041779,1.000000 327.531342,1.000002 
z"/>
<path fill="#D58D54" opacity="1.000000" stroke="none" 
	d="
M139.609085,311.726990 
	C147.507919,275.805420 166.658386,248.326385 197.361740,228.725647 
	C214.379578,217.861588 232.825333,211.899094 252.839661,209.897995 
	C286.717804,206.510757 316.961334,215.672272 343.627747,236.298691 
	C368.924652,255.865814 384.906067,281.791443 390.699371,313.179749 
	C397.982452,352.639496 388.408661,388.474457 362.879486,419.294373 
	C343.617950,442.547699 318.471985,457.192017 288.672607,462.783813 
	C259.144775,468.324646 230.722107,463.986145 204.370209,449.547607 
	C176.930893,434.513336 157.162964,412.383942 145.771027,382.913055 
	C139.261703,366.073486 136.515076,348.712158 137.103577,330.808533 
	C137.308899,324.562408 138.638458,318.353210 139.609085,311.726990 
M170.779419,353.745026 
	C173.505661,371.493652 181.061584,387.226685 193.026306,400.261444 
	C215.800690,425.072418 244.172699,436.308472 278.019379,431.969116 
	C296.983063,429.537903 314.011658,421.982788 328.019440,409.213165 
	C353.214630,386.245148 364.467682,357.497101 359.911469,323.327515 
	C357.413605,304.594666 349.815063,287.716431 337.109680,273.860840 
	C314.353577,249.044662 286.029449,237.734955 252.161560,242.017349 
	C233.182556,244.417130 216.101532,251.890686 202.121445,264.670593 
	C176.248062,288.322754 164.974457,317.760956 170.779419,353.745026 
z"/>
<path fill="#ED9D5D" opacity="1.000000" stroke="none" 
	d="
M170.627106,353.340576 
	C164.974457,317.760956 176.248062,288.322754 202.121445,264.670593 
	C216.101532,251.890686 233.182556,244.417130 252.161560,242.017349 
	C286.029449,237.734955 314.353577,249.044662 337.109680,273.860840 
	C349.815063,287.716431 357.413605,304.594666 359.911469,323.327515 
	C364.467682,357.497101 353.214630,386.245148 328.019440,409.213165 
	C314.011658,421.982788 296.983063,429.537903 278.019379,431.969116 
	C244.172699,436.308472 215.800690,425.072418 193.026306,400.261444 
	C181.061584,387.226685 173.505661,371.493652 170.627106,353.340576 
z"/>
</svg>