<?xml version="1.0" encoding="UTF-8"?>
<svg version="1.1" xmlns="http://www.w3.org/2000/svg" width="512" height="512">
<path d="M0 0 C2.18926388 -0.02442479 4.3784537 -0.05649354 6.56750488 -0.09558105 C12.48662684 -0.17733152 18.40007492 -0.14597861 24.31929016 -0.08875751 C30.52778826 -0.04301417 36.73581764 -0.08549592 42.94433594 -0.1137085 C54.03543543 -0.14850059 65.12403543 -0.09275274 76.21473455 -0.00104043 C86.24989703 0.07937737 96.28131137 0.06540508 106.31640625 -0.01757812 C117.99868079 -0.11379576 129.67861341 -0.14964517 141.36122513 -0.09655738 C147.53498502 -0.0685685 153.70616895 -0.06453402 159.87976074 -0.12421417 C165.6870812 -0.17643759 171.48736628 -0.13979907 177.29393005 -0.03611755 C179.41735675 -0.01242729 181.5413816 -0.01897087 183.66456604 -0.05884552 C199.23885309 -0.32425341 199.23885309 -0.32425341 204.26751518 4.08401585 C207.91111888 8.36083096 210.56587576 13.06690976 213.07978344 18.06988859 C214.89812844 21.53411918 217.11591646 24.6884518 219.36328125 27.88378906 C220.18464597 29.09136978 221.00429782 30.30011897 221.8215332 31.51049805 C222.43407455 32.41310867 222.43407455 32.41310867 223.05899048 33.33395386 C224.38661224 35.2902861 225.71327693 37.24726489 227.03979492 39.2043457 C231.85399061 46.30578209 236.67395796 53.40328097 241.49833679 60.49780273 C244.61988628 65.08927192 247.73258979 69.68668386 250.84272766 74.28588867 C253.16589017 77.71749024 255.50611514 81.136763 257.85820007 84.54859924 C259.01890238 86.23553045 260.17398857 87.92614783 261.3269043 89.6184082 C262.75206351 91.70901264 264.18667333 93.79321587 265.63208008 95.86987305 C266.25880615 96.79485596 266.88553223 97.71983887 267.53125 98.67285156 C268.36317871 99.88231445 268.36317871 99.88231445 269.21191406 101.11621094 C270.265625 103.32910156 270.265625 103.32910156 270.06396484 105.4765625 C268.84731869 108.29977687 266.85899507 109.97466591 264.640625 112.07910156 C261.52894593 115.09367859 258.51250803 118.09305537 255.703125 121.39160156 C252.47492642 125.16669496 248.98763236 128.62360782 245.453125 132.11035156 C243.46842158 134.12340789 241.60465584 136.18356559 239.765625 138.32910156 C236.51397872 142.12268889 233.00849406 145.60302804 229.453125 149.11035156 C227.46842158 151.12340789 225.60465584 153.18356559 223.765625 155.32910156 C220.51397872 159.12268889 217.00849406 162.60302804 213.453125 166.11035156 C211.46842158 168.12340789 209.60465584 170.18356559 207.765625 172.32910156 C204.51397872 176.12268889 201.00849406 179.60302804 197.453125 183.11035156 C195.46842158 185.12340789 193.60465584 187.18356559 191.765625 189.32910156 C188.51397872 193.12268889 185.00849406 196.60302804 181.453125 200.11035156 C179.46842158 202.12340789 177.60465584 204.18356559 175.765625 206.32910156 C172.51397872 210.12268889 169.00849406 213.60302804 165.453125 217.11035156 C163.46842158 219.12340789 161.60465584 221.18356559 159.765625 223.32910156 C157.21870892 226.30050365 154.55183641 229.08054166 151.765625 231.82910156 C149.00002092 234.55739563 146.35275469 237.3142699 143.828125 240.26660156 C140.3209306 244.35968459 136.50837342 248.1013486 132.67578125 251.88769531 C129.99707968 254.60112883 127.51954382 257.43687179 125.04296875 260.33300781 C122.31585277 263.39576883 119.37157863 266.23133649 116.453125 269.11035156 C113.86620482 271.73422774 111.48179228 274.4930179 109.0859375 277.29003906 C106.35318695 280.35118882 103.41942156 283.19779732 100.4765625 286.05566406 C97.92606558 288.67825983 95.60760146 291.51872982 93.265625 294.32910156 C106.630625 294.82410156 106.630625 294.82410156 120.265625 295.32910156 C120.265625 317.76910156 120.265625 340.20910156 120.265625 363.32910156 C123.895625 363.32910156 127.525625 363.32910156 131.265625 363.32910156 C151.72402985 366.48106633 169.85571274 377.36162705 182.27734375 394.02832031 C187.80705594 402.43684145 194.265625 413.0407952 194.265625 423.32910156 C207.795625 423.32910156 221.325625 423.32910156 235.265625 423.32910156 C235.265625 443.45910156 235.265625 463.58910156 235.265625 484.32910156 C245.165625 484.32910156 255.065625 484.32910156 265.265625 484.32910156 C265.265625 494.22910156 265.265625 504.12910156 265.265625 514.32910156 C149.765625 514.32910156 34.265625 514.32910156 -84.734375 514.32910156 C-84.734375 504.42910156 -84.734375 494.52910156 -84.734375 484.32910156 C-74.834375 484.32910156 -64.934375 484.32910156 -54.734375 484.32910156 C-54.734375 464.19910156 -54.734375 444.06910156 -54.734375 423.32910156 C-41.204375 423.32910156 -27.674375 423.32910156 -13.734375 423.32910156 C-13.404375 421.01910156 -13.074375 418.70910156 -12.734375 416.32910156 C-6.30745154 396.94591009 7.1389807 380.90630484 24.9375 370.93457031 C36.56608109 365.32500831 47.30722898 363.32910156 60.265625 363.32910156 C60.265625 340.88910156 60.265625 318.44910156 60.265625 295.32910156 C73.630625 294.83410156 73.630625 294.83410156 87.265625 294.32910156 C78.65749519 285.09329562 70.02984696 275.87682353 61.37109375 266.68847656 C58.55736151 263.702475 55.74792703 260.71250688 52.94140625 257.71972656 C52.23161621 256.96353027 51.52182617 256.20733398 50.79052734 255.42822266 C49.44491826 253.99448011 48.10012867 252.55996778 46.75634766 251.12451172 C43.72129985 247.8928873 40.65790925 244.70291399 37.51171875 241.57910156 C35.19798923 239.28128848 32.98944238 236.95269368 30.890625 234.45410156 C28.29928295 231.44442626 25.59307717 228.6182154 22.765625 225.82910156 C19.3584371 222.46795674 16.19104326 218.99208953 13.078125 215.36035156 C11.0546962 213.09271584 8.92909153 210.96333206 6.765625 208.82910156 C3.3584371 205.46795674 0.19104326 201.99208953 -2.921875 198.36035156 C-4.9453038 196.09271584 -7.07090847 193.96333206 -9.234375 191.82910156 C-12.6415629 188.46795674 -15.80895674 184.99208953 -18.921875 181.36035156 C-20.9453038 179.09271584 -23.07090847 176.96333206 -25.234375 174.82910156 C-28.6415629 171.46795674 -31.80895674 167.99208953 -34.921875 164.36035156 C-36.9453038 162.09271584 -39.07090847 159.96333206 -41.234375 157.82910156 C-44.6415629 154.46795674 -47.80895674 150.99208953 -50.921875 147.36035156 C-52.9453038 145.09271584 -55.07090847 142.96333206 -57.234375 140.82910156 C-60.6415629 137.46795674 -63.80895674 133.99208953 -66.921875 130.36035156 C-69.65847855 127.29346827 -72.60594592 124.44898059 -75.53125 121.56347656 C-78.20628312 118.85049971 -80.69375106 116.01196393 -83.15625 113.10644531 C-84.60031508 111.48008489 -86.10593463 110.07767123 -87.734375 108.64160156 C-89.734375 106.32910156 -89.734375 106.32910156 -89.6875 104.17675781 C-88.31797833 100.0850312 -85.97576506 96.95081588 -83.484375 93.45410156 C-82.29048435 91.74398887 -81.09786701 90.03298682 -79.90625 88.32128906 C-79.24302734 87.3722168 -78.57980469 86.42314453 -77.89648438 85.4453125 C-74.24043152 80.1759066 -70.65426864 74.85933737 -67.06332397 69.54544067 C-64.81104573 66.21292537 -62.55565299 62.88251855 -60.30078125 59.55175781 C-59.84435745 58.87735153 -59.38793365 58.20294525 -58.91767883 57.50810242 C-55.66022738 52.69518526 -52.39920318 47.88470186 -49.13671875 43.07519531 C-47.75719594 41.04092536 -46.37773297 39.00661483 -44.99829102 36.97229004 C-44.13719782 35.7026808 -43.27588267 34.43322206 -42.41430664 33.16394043 C-41.62361196 31.99901723 -40.83417142 30.83324133 -40.04626179 29.66643262 C-39.23940896 28.4804632 -38.42480116 27.29969486 -37.59913158 26.12674785 C-35.26012093 22.76579247 -33.22152019 19.40675899 -31.38252258 15.74602127 C-23.5798727 1.01514073 -15.9272189 -0.29912255 0 0 Z " fill="#AEDEED" transform="translate(165.734375,-2.3291015625)"/>
<path d="M0 0 C95.7 0 191.4 0 290 0 C290 20.13 290 40.26 290 61 C299.9 61 309.8 61 320 61 C320 70.9 320 80.8 320 91 C204.5 91 89 91 -30 91 C-30 81.1 -30 71.2 -30 61 C-20.1 61 -10.2 61 0 61 C0 40.87 0 20.74 0 0 Z " fill="#375363" transform="translate(111,421)"/>
<path d="M0 0 C19.8 0 39.6 0 60 0 C60 22.44 60 44.88 60 68 C63.63 68 67.26 68 71 68 C91.45840485 71.15196477 109.59008774 82.03252549 122.01171875 98.69921875 C127.87355309 107.61276727 134 118.14560309 134 129 C65.36 129 -3.28 129 -74 129 C-71.6215994 109.97279519 -60.75107647 95.14675549 -46.42578125 82.875 C-32.49087618 72.10405889 -17.42943776 68 0 68 C0 45.56 0 23.12 0 0 Z " fill="#FCBA34" transform="translate(226,293)"/>
<path d="M0 0 C3.09143706 3.09143706 5.26066631 5.63254716 7.65234375 9.19140625 C8.33973633 10.20895996 9.02712891 11.22651367 9.73535156 12.27490234 C10.82541504 13.90226318 10.82541504 13.90226318 11.9375 15.5625 C12.70100489 16.69515636 13.46500775 17.8274772 14.22949219 18.95947266 C15.76708166 21.2367068 17.30287461 23.51513533 18.83740234 25.79443359 C21.78825445 30.16841059 24.76595302 34.52363114 27.75 38.875 C28.79951752 40.40752582 29.84899698 41.9400777 30.8984375 43.47265625 C31.66559082 44.59244873 31.66559082 44.59244873 32.44824219 45.73486328 C35.09154658 49.59335576 37.73337119 53.45286027 40.375 57.3125 C40.90279053 58.08319824 41.43058105 58.85389648 41.97436523 59.64794922 C44.94827692 63.99274966 47.91391583 68.34300898 50.87109375 72.69921875 C51.5273877 73.66496826 52.18368164 74.63071777 52.85986328 75.62573242 C54.11625462 77.47513168 55.37125139 79.32547951 56.62451172 81.17700195 C57.7725181 82.86607561 58.94351723 84.53983468 60.14085388 86.19430542 C62 89 62 89 63.22868347 91.87043762 C65.08714449 95.57072504 66.6447363 97.52187552 70 100 C77.97067708 102.16476137 86.66672671 101.41756877 94.84375 101.29296875 C97.29855168 101.29489142 99.75335394 101.30165938 102.20812988 101.31306458 C108.65328653 101.33003596 115.09632694 101.28136164 121.5411377 101.21887207 C128.12376735 101.16670791 134.70627156 101.17681786 141.2890625 101.18164062 C154.19330929 101.18193977 167.09629171 101.1149841 180 101 C178.37915347 104.44401787 176.57463755 106.60671518 173.8125 109.25 C170.91420356 112.0789592 168.1301419 114.92020855 165.5 118 C162.24835372 121.79358733 158.74286906 125.27392647 155.1875 128.78125 C153.20279658 130.79430632 151.33903084 132.85446403 149.5 135 C146.24835372 138.79358733 142.74286906 142.27392647 139.1875 145.78125 C137.20279658 147.79430632 135.33903084 149.85446403 133.5 152 C130.24835372 155.79358733 126.74286906 159.27392647 123.1875 162.78125 C121.20279658 164.79430632 119.33903084 166.85446403 117.5 169 C114.24835372 172.79358733 110.74286906 176.27392647 107.1875 179.78125 C105.20279658 181.79430632 103.33903084 183.85446403 101.5 186 C98.24835372 189.79358733 94.74286906 193.27392647 91.1875 196.78125 C89.20279658 198.79430632 87.33903084 200.85446403 85.5 203 C82.24835372 206.79358733 78.74286906 210.27392647 75.1875 213.78125 C73.20279658 215.79430632 71.33903084 217.85446403 69.5 220 C66.95308392 222.97140209 64.28621141 225.7514401 61.5 228.5 C58.73439592 231.22829407 56.08712969 233.98516834 53.5625 236.9375 C50.0553056 241.03058303 46.24274842 244.77224704 42.41015625 248.55859375 C39.73145468 251.27202727 37.25391882 254.10777023 34.77734375 257.00390625 C32.05022777 260.06666727 29.10595363 262.90223493 26.1875 265.78125 C23.59930547 268.40641873 21.2138996 271.16684107 18.81640625 273.96484375 C16.06360229 277.04916819 13.09862219 279.91043428 10.15625 282.8125 C7.26514131 285.74550881 4.62914291 288.83154573 2 292 C0.65013789 288.31125009 1.37016873 286.16329275 2.7121582 282.5402832 C3.3168972 280.88313293 3.3168972 280.88313293 3.93385315 279.19250488 C4.38493942 277.99073608 4.8360257 276.78896729 5.30078125 275.55078125 C5.76929803 274.2791996 6.23684188 273.00725911 6.70347595 271.73498535 C7.96468491 268.30443618 9.23905449 264.87891125 10.51576233 261.45410538 C11.85215746 257.86191801 13.17604109 254.26512746 14.50097656 250.66870117 C16.64715357 244.84721164 18.79975504 239.02814157 20.95751953 233.2109375 C23.60881916 226.06221126 26.24516286 218.90808893 28.87109375 211.75 C29.426511 210.23599609 29.426511 210.23599609 29.9931488 208.69140625 C30.72106031 206.70689503 31.44890079 204.72235775 32.17666626 202.73779297 C33.6117761 198.82650557 35.04988535 194.91632375 36.48789978 191.00610352 C41.71850229 176.78156637 46.92438881 162.54802569 52.125 148.3125 C52.51546509 147.24383698 52.90593018 146.17517395 53.30822754 145.0741272 C54.43751096 141.98310499 55.56648842 138.89197124 56.6953125 135.80078125 C57.0124118 134.93263794 57.32951111 134.06449463 57.65621948 133.17004395 C61.44765285 122.78371674 65.22143872 112.39104352 69 102 C46.23 102 23.46 102 0 102 C0 68.34 0 34.68 0 0 Z " fill="#62BDCC" transform="translate(256,1)"/>
<path d="M0 0 C14.39441777 -0.4218553 28.78786857 -0.73734066 43.1872139 -0.93261909 C49.87479752 -1.02516665 56.55795956 -1.15338638 63.24316406 -1.35791016 C69.70155058 -1.55424655 76.15594705 -1.66125698 82.61708832 -1.70779037 C85.07513016 -1.74092302 87.53296523 -1.80563809 89.98929596 -1.90314102 C108.71238763 -2.61643648 108.71238763 -2.61643648 114.17492485 1.73090744 C117.93761691 5.94763491 120.49296647 10.63812305 122.87760448 15.73158169 C124.61419539 19.24132005 126.83783545 22.3673959 129.09765625 25.5546875 C129.9194766 26.76195818 130.7391851 27.97067168 131.5559082 29.18139648 C132.16844955 30.08400711 132.16844955 30.08400711 132.79336548 31.00485229 C134.12098724 32.96118454 135.44765193 34.91816333 136.77416992 36.87524414 C141.1835259 43.3795001 145.5975746 49.88055339 150.015625 56.37890625 C157.77406397 67.79204333 165.51466746 79.2165766 173.1875 90.6875 C173.87755127 91.71609131 174.56760254 92.74468262 175.27856445 93.80444336 C175.90206787 94.73909424 176.52557129 95.67374512 177.16796875 96.63671875 C177.71735107 97.45873779 178.2667334 98.28075684 178.83276367 99.12768555 C180 101 180 101 180 102 C165.77900842 102.21050514 151.55825934 102.36847705 137.3360281 102.46630955 C130.731851 102.51326665 124.12872094 102.57695005 117.52514648 102.67895508 C111.15138029 102.77679336 104.77862064 102.83056876 98.40416145 102.85389519 C95.97316706 102.87051646 93.54222739 102.9029755 91.11166191 102.95157051 C87.70401186 103.01698685 84.30051158 103.02589939 80.89233398 103.02172852 C79.38721252 103.07026474 79.38721252 103.07026474 77.85168457 103.11978149 C73.62244303 103.06383065 71.04769932 102.957187 67.84775162 100.03368759 C66.06037843 97.76047107 64.50446508 95.46718321 63 93 C62.29085449 92.00500488 61.58170898 91.01000977 60.85107422 89.98486328 C60.2582666 89.10556152 59.66545898 88.22625977 59.0546875 87.3203125 C58.37696289 86.31887207 57.69923828 85.31743164 57.00097656 84.28564453 C56.2994043 83.24263184 55.59783203 82.19961914 54.875 81.125 C54.12503245 80.01522025 53.37470141 78.90568605 52.62402344 77.79638672 C51.11974554 75.57327715 49.61664092 73.34939262 48.11425781 71.125 C45.17519109 66.78088291 42.21514342 62.45134302 39.25 58.125 C38.72970215 57.36525879 38.2094043 56.60551758 37.67333984 55.82275391 C36.63587376 54.3078526 35.59827741 52.79304048 34.56054688 51.27832031 C32.96153398 48.94384153 31.36341994 46.60875004 29.765625 44.2734375 C29.22663574 43.48565918 28.68764648 42.69788086 28.13232422 41.88623047 C27.05043081 40.30465311 25.96872285 38.72294887 24.88720703 37.14111328 C22.10996489 33.07986933 19.32826757 29.02178915 16.5390625 24.96875 C15.96736328 24.13666016 15.39566406 23.30457031 14.80664062 22.44726562 C13.73134894 20.88241025 12.6546611 19.31851274 11.57617188 17.75585938 C8.73958115 13.62422334 5.9928398 9.44701537 3.30810547 5.21484375 C2.68612274 4.23507568 2.06414001 3.25530762 1.42330933 2.24584961 C0.95361725 1.50471924 0.48392517 0.76358887 0 0 Z " fill="#ADDDEC" transform="translate(256,0)"/>
<path d="M0 0 C2.49382297 0.03361495 4.98776565 0.05921718 7.48175049 0.07717896 C14.01491308 0.14558745 20.54075585 0.32206622 27.07104492 0.52185059 C33.74643658 0.71658048 40.42412159 0.78834934 47.1015625 0.87890625 C60.18018884 1.07137597 73.25376603 1.37464399 86.328125 1.7578125 C85.22618249 3.4965752 84.1232953 5.23473923 83.02001953 6.97265625 C82.40595245 7.94066162 81.79188538 8.90866699 81.15921021 9.90600586 C78.58671527 13.9125142 75.90735643 17.83953201 73.203125 21.7578125 C72.06245829 23.41794009 70.92183449 25.07809717 69.78125 26.73828125 C69.20697266 27.57278809 68.63269531 28.40729492 68.04101562 29.26708984 C65.33841362 33.19695667 62.64574737 37.13360423 59.953125 41.0703125 C59.42251465 41.84568359 58.8919043 42.62105469 58.34521484 43.41992188 C54.16618969 49.528016 49.9963209 55.64232507 45.828125 61.7578125 C44.56642675 63.6080869 43.30470812 65.4583474 42.04296875 67.30859375 C39.61641164 70.86707993 37.19225924 74.42718731 34.76953125 77.98828125 C19.11419421 100.97174329 19.11419421 100.97174329 16.328125 103.7578125 C14.89866029 103.85335649 13.46449835 103.87969688 12.03184509 103.87806702 C11.10491348 103.87944168 10.17798187 103.88081635 9.22296143 103.88223267 C8.19797546 103.87863739 7.1729895 103.87504211 6.11694336 103.87133789 C4.50738518 103.87155693 4.50738518 103.87155693 2.86531067 103.8717804 C-0.70049016 103.87108074 -4.26623949 103.86328588 -7.83203125 103.85546875 C-10.29682893 103.85360476 -12.76162699 103.85218077 -15.22642517 103.85118103 C-21.72841405 103.84735437 -28.23038075 103.83752282 -34.73236084 103.82647705 C-41.36128317 103.81572998 -47.99021193 103.81168409 -54.61914062 103.80664062 C-67.63672824 103.79590069 -80.65430044 103.77901347 -93.671875 103.7578125 C-92.87758143 102.31545615 -92.08174684 100.87394835 -91.28526306 99.43280029 C-90.84224822 98.6299699 -90.39923338 97.82713951 -89.94279385 96.99998093 C-88.48335764 94.42522819 -86.88737603 91.99990976 -85.17578125 89.5859375 C-84.54260986 88.68617187 -83.90943848 87.78640625 -83.25708008 86.859375 C-82.5895874 85.91835937 -81.92209473 84.97734375 -81.234375 84.0078125 C-76.06363 76.64675192 -70.95047091 69.25858593 -65.984375 61.7578125 C-59.22432826 51.5528277 -52.36111747 41.41961904 -45.48168945 31.29492188 C-45.08857102 30.71307538 -44.69545259 30.13122889 -44.29042149 29.53175068 C-43.44120125 28.28601906 -42.58232671 27.046765 -41.7101717 25.81698132 C-39.28751991 22.35727488 -37.22793501 18.9476175 -35.43441772 15.12031555 C-27.27569985 -1.16367863 -16.89233552 -0.6705336 0 0 Z " fill="#D3F2FE" transform="translate(169.671875,-1.7578125)"/>
<path d="M0 0 C115.5 0 231 0 350 0 C350 9.9 350 19.8 350 30 C234.5 30 119 30 0 30 C0 20.1 0 10.2 0 0 Z " fill="#1B323A" transform="translate(81,482)"/>
<path d="M0 0 C30.67924761 -0.0560992 61.34838606 0.14517168 92.0256958 0.46356201 C99.09426229 0.53638604 106.16286046 0.60606797 113.23145294 0.67631531 C123.82099388 0.78188614 134.41048875 0.89129008 145 1 C145 20.8 145 40.6 145 61 C97.15 61 49.3 61 0 61 C0 40.87 0 20.74 0 0 Z " fill="#638293" transform="translate(111,421)"/>
<path d="M0 0 C22.77 0 45.54 0 69 0 C69 62.37 69 124.74 69 189 C67.10106953 186.1516043 66.08421083 183.78535958 64.92578125 180.5859375 C64.51328125 179.45349609 64.10078125 178.32105469 63.67578125 177.15429688 C63.22133355 175.89453869 62.7669072 174.6347728 62.3125 173.375 C61.83115332 172.04997605 61.34937072 170.72511038 60.8671875 169.40039062 C59.81293473 166.50288604 58.76064763 163.60467719 57.70947266 160.70605469 C54.97676312 153.17631735 52.21865305 145.65585165 49.46432495 138.13400269 C48.17398661 134.60951164 46.88473739 131.08462262 45.59547424 127.55973816 C40.40533083 113.3700949 35.20378768 99.18464482 30 85 C28.69495513 81.44266847 27.38997476 77.88531334 26.08520508 74.32788086 C25.1971942 71.90675631 24.30901143 69.48569479 23.4206543 67.06469727 C20.983111 60.41992336 18.55125616 53.77310536 16.12594604 47.12385559 C14.77327355 43.41553226 13.41952321 39.70760268 12.0657959 35.99966431 C11.40434164 34.18686195 10.74344009 32.37385782 10.08312988 30.56063843 C9.15186364 28.00345685 8.21896632 25.44687864 7.28515625 22.890625 C6.99454315 22.09372757 6.70393005 21.29683014 6.4045105 20.4757843 C4.6031465 15.56265715 2.71204356 10.70249903 0.62670898 5.90136719 C0 4 0 4 0 0 Z " fill="#D3F2FE" transform="translate(187,103)"/>
<path d="M0 0 C57.75 0 115.5 0 175 0 C175 9.9 175 19.8 175 30 C117.25 30 59.5 30 0 30 C0 20.1 0 10.2 0 0 Z " fill="#375363" transform="translate(81,482)"/>
<path d="M0 0 C1.19991577 0.00151062 1.19991577 0.00151062 2.42407227 0.00305176 C5.38950043 0.00825229 8.35490802 0.02221339 11.3203125 0.03515625 C21.2821875 0.06609375 21.2821875 0.06609375 31.4453125 0.09765625 C31.4453125 19.89765625 31.4453125 39.69765625 31.4453125 60.09765625 C-2.8746875 60.09765625 -37.1946875 60.09765625 -72.5546875 60.09765625 C-69.7959542 40.78652316 -57.75776729 24.84882903 -42.5546875 13.09765625 C-29.69311653 4.18920883 -15.58260735 -0.09328703 0 0 Z " fill="#FFDC32" transform="translate(224.5546875,360.90234375)"/>
<path d="M0 0 C19.8 0 39.6 0 60 0 C60 22.44 60 44.88 60 68 C40.2 68 20.4 68 0 68 C0 45.56 0 23.12 0 0 Z " fill="#FEBB33" transform="translate(226,293)"/>
<path d="M0 0 C9.57 0 19.14 0 29 0 C29 22.44 29 44.88 29 68 C19.1 68 9.2 68 -1 68 C-1.04010881 51.31919185 -1.04010881 51.31919185 -1.04882812 44.23242188 C-1.05481596 39.38857941 -1.06191465 34.54475578 -1.07543945 29.70092773 C-1.08627043 25.79764029 -1.09227728 21.89437301 -1.09487724 17.9910717 C-1.09673111 16.49866353 -1.100351 15.00625652 -1.10573006 13.51385689 C-1.11294331 11.43051861 -1.11399083 9.34726469 -1.11352539 7.26391602 C-1.115746 6.07588882 -1.11796661 4.88786163 -1.12025452 3.66383362 C-1 1 -1 1 0 0 Z " fill="#FF8C19" transform="translate(257,293)"/>
<path d="M0 0 C1.26825245 0.01281384 2.5365049 0.02562767 3.84318924 0.0388298 C19.62478756 0.19955595 35.40620505 0.37440038 51.1875 0.5625 C51.1875 0.8925 51.1875 1.2225 51.1875 1.5625 C34.12516427 1.76586854 17.06267715 1.95260662 0 2.125 C-1.25930958 2.13773327 -2.51861916 2.15046654 -3.81608963 2.16358566 C-36.29967523 2.48786777 -68.76845189 2.69586165 -101.25 2.125 C-101.98007137 2.11218616 -102.71014275 2.09937233 -103.46233749 2.0861702 C-111.91292871 1.93577534 -120.36296931 1.76416618 -128.8125 1.5625 C-128.8125 1.2325 -128.8125 0.9025 -128.8125 0.5625 C-119.62560295 0.34323499 -110.43808104 0.16126445 -101.25 0 C-100.52548771 -0.01273327 -99.80097542 -0.02546654 -99.05450821 -0.03858566 C-66.0335721 -0.60624088 -33.02234018 -0.3338991 0 0 Z " fill="#86CCDB" transform="translate(384.8125,101.4375)"/>
<path d="M0 0 C0.74288521 0.01281384 1.48577042 0.02562767 2.2511673 0.0388298 C10.87629576 0.18964681 19.50088265 0.36146506 28.125 0.5625 C28.125 0.8925 28.125 1.2225 28.125 1.5625 C18.75056279 1.78102548 9.37556749 1.96328326 0 2.125 C-0.73724556 2.13773327 -1.47449112 2.15046654 -2.23407745 2.16358566 C-35.24252248 2.72143627 -68.24023518 2.46218129 -101.25 2.125 C-103.13315792 2.10577925 -103.13315792 2.10577925 -105.05435944 2.0861702 C-120.66140462 1.92558632 -136.26826502 1.75076295 -151.875 1.5625 C-151.875 1.2325 -151.875 0.9025 -151.875 0.5625 C-135.000168 0.35894009 -118.12518109 0.17223924 -101.25 0 C-100.00342369 -0.01273327 -98.75684738 -0.02546654 -97.47249603 -0.03858566 C-64.9758184 -0.36626972 -32.494731 -0.56122975 0 0 Z " fill="#C0E7F5" transform="translate(227.875,101.4375)"/>
</svg>
