<svg version="1.1" id="Layer_1" xmlns="http://www.w3.org/2000/svg" xmlns:xlink="http://www.w3.org/1999/xlink" x="0px" y="0px"
	 width="100%" viewBox="0 0 512 512" enable-background="new 0 0 512 512" xml:space="preserve">
<path fill="#FFFFFF" opacity="1.000000" stroke="none" 
	d="
M246.000000,513.000000 
	C164.378174,513.000000 82.756363,513.000000 1.067269,513.000000 
	C1.067269,342.333344 1.067269,171.666672 1.067269,1.000000 
	C14.076913,1.000000 27.069798,1.000000 40.539856,1.361461 
	C44.671814,7.119633 48.300926,12.533938 51.986023,17.909870 
	C64.914360,36.770157 77.904770,55.588043 90.791847,74.476448 
	C108.366287,100.235046 125.842934,126.060371 143.410843,151.823441 
	C151.872818,164.232788 160.447662,176.565155 168.654358,189.072159 
	C158.797180,196.761475 148.281906,203.382095 139.973099,212.104568 
	C130.399551,222.154770 122.202774,233.676727 114.425133,245.243393 
	C99.140060,267.974945 91.501282,293.748566 89.276863,320.684418 
	C87.063583,347.485443 90.157761,373.902527 99.839699,399.488220 
	C110.664894,428.095032 127.688156,452.244324 150.692429,471.874481 
	C172.358719,490.362885 197.411072,502.978210 225.482712,509.008820 
	C232.293304,510.471893 239.159424,511.676514 246.000000,513.000000 
z"/>
<path fill="#FFFFFF" opacity="1.000000" stroke="none" 
	d="
M473.000000,0.999999 
	C486.325867,1.000000 499.651733,1.000000 512.983154,1.000000 
	C512.988770,171.563583 512.988770,342.127167 512.988770,513.000000 
	C436.979370,513.000000 360.958344,513.000000 284.688782,512.656006 
	C287.531586,511.875549 290.621613,511.429901 293.714386,511.003998 
	C308.786072,508.928589 323.273071,504.567108 337.044800,498.334198 
	C358.689911,488.537842 377.808411,475.076538 394.115295,457.555939 
	C404.767578,446.110748 413.620972,433.512177 420.983643,419.850281 
	C431.469055,400.394012 437.730438,379.584412 440.070160,357.571442 
	C442.147095,338.030945 441.732544,318.553009 437.566193,299.378998 
	C432.197754,274.672729 422.021698,251.972336 406.866516,231.615051 
	C398.162659,219.923462 388.361328,209.212158 376.769623,200.381943 
	C368.159180,193.822784 358.949921,188.049713 350.113953,181.603745 
	C353.729706,176.399002 357.334747,171.582672 360.731995,166.623993 
	C378.173431,141.166428 395.580170,115.684967 412.962555,90.186996 
	C428.328827,67.646408 443.680084,45.095436 458.967346,22.501251 
	C463.762695,15.413868 468.328918,8.171453 473.000000,0.999999 
z"/>
<path fill="#EFC75E" opacity="1.000000" stroke="none" 
	d="
M350.007416,181.926483 
	C358.949921,188.049713 368.159180,193.822784 376.769623,200.381943 
	C388.361328,209.212158 398.162659,219.923462 406.866516,231.615051 
	C422.021698,251.972336 432.197754,274.672729 437.566193,299.378998 
	C441.732544,318.553009 442.147095,338.030945 440.070160,357.571442 
	C437.730438,379.584412 431.469055,400.394012 420.983643,419.850281 
	C413.620972,433.512177 404.767578,446.110748 394.115295,457.555939 
	C377.808411,475.076538 358.689911,488.537842 337.044800,498.334198 
	C323.273071,504.567108 308.786072,508.928589 293.714386,511.003998 
	C290.621613,511.429901 287.531586,511.875549 284.220154,512.656006 
	C271.645782,513.000000 259.291534,513.000000 246.468658,513.000000 
	C239.159424,511.676514 232.293304,510.471893 225.482712,509.008820 
	C197.411072,502.978210 172.358719,490.362885 150.692429,471.874481 
	C127.688156,452.244324 110.664894,428.095032 99.839699,399.488220 
	C90.157761,373.902527 87.063583,347.485443 89.276863,320.684418 
	C91.501282,293.748566 99.140060,267.974945 114.425133,245.243393 
	C122.202774,233.676727 130.399551,222.154770 139.973099,212.104568 
	C148.281906,203.382095 158.797180,196.761475 168.991241,188.992554 
	C175.611008,185.511230 181.488708,182.073975 187.559830,179.021362 
	C203.495026,171.009048 220.350555,165.696655 237.998779,163.283401 
	C247.299866,162.011566 256.747772,161.110260 266.115295,161.222244 
	C275.783569,161.337860 285.434692,162.885864 295.495056,163.863495 
	C306.318695,166.817291 316.852051,169.373108 327.126160,172.723709 
	C334.924286,175.266830 342.392426,178.821762 350.007416,181.926483 
M381.875031,284.735596 
	C368.701935,256.883575 348.697876,235.524216 320.895416,222.062881 
	C299.454742,211.681763 276.850922,207.230621 252.826340,209.798141 
	C238.443497,211.335251 224.701019,214.702026 211.726578,220.759521 
	C188.277786,231.707260 169.696701,248.215164 155.989380,270.365326 
	C143.875687,289.940338 137.848892,311.199463 137.085251,333.972321 
	C136.518280,350.880127 139.662628,367.230194 145.830521,383.072144 
	C157.488937,413.016357 177.675446,435.402130 205.877869,450.286743 
	C228.215240,462.075928 252.104050,466.902771 277.540192,464.166016 
	C291.917664,462.619049 305.631317,459.158539 318.606476,453.083282 
	C342.228790,442.022797 360.852722,425.261780 374.507629,402.927094 
	C386.033173,384.075317 391.865845,363.531921 392.914764,341.657227 
	C393.850952,322.134460 389.667694,303.429230 381.875031,284.735596 
z"/>
<path fill="#E2574C" opacity="1.000000" stroke="none" 
	d="
M295.093323,163.807220 
	C285.434692,162.885864 275.783569,161.337860 266.115295,161.222244 
	C256.747772,161.110260 247.299866,162.011566 237.998779,163.283401 
	C220.350555,165.696655 203.495026,171.009048 187.559830,179.021362 
	C181.488708,182.073975 175.611008,185.511230 169.308273,188.852783 
	C160.447662,176.565155 151.872818,164.232788 143.410843,151.823441 
	C125.842934,126.060371 108.366287,100.235046 90.791847,74.476448 
	C77.904770,55.588043 64.914360,36.770157 51.986023,17.909870 
	C48.300926,12.533938 44.671814,7.119633 41.008514,1.361461 
	C89.020897,1.000000 137.041794,1.000000 185.630463,1.333381 
	C187.375702,3.230917 188.620316,4.749365 189.720596,6.366053 
	C207.231705,32.095943 224.685669,57.864834 242.246628,83.560616 
	C247.014450,90.537056 252.092453,97.301529 257.024658,104.522888 
	C257.907471,106.621201 258.620026,108.477745 259.706909,110.080368 
	C270.482300,125.968430 281.347229,141.795792 292.102264,157.697540 
	C293.360291,159.557571 294.108673,161.762299 295.093323,163.807220 
z"/>
<path fill="#BF392C" opacity="1.000000" stroke="none" 
	d="
M295.495056,163.863495 
	C294.108673,161.762299 293.360291,159.557571 292.102264,157.697540 
	C281.347229,141.795792 270.482300,125.968430 259.706909,110.080368 
	C258.620026,108.477745 257.907471,106.621201 257.338867,104.366066 
	C263.458344,95.441124 269.251648,87.026733 275.063965,78.625481 
	C283.473358,66.470398 291.970276,54.375134 300.294098,42.161819 
	C309.608429,28.495079 318.771240,14.725060 328.000000,0.999995 
	C376.020905,1.000000 424.041779,1.000000 472.531342,0.999999 
	C468.328918,8.171453 463.762695,15.413868 458.967346,22.501251 
	C443.680084,45.095436 428.328827,67.646408 412.962555,90.186996 
	C395.580170,115.684967 378.173431,141.166428 360.731995,166.623993 
	C357.334747,171.582672 353.729706,176.399002 350.113953,181.603729 
	C342.392426,178.821762 334.924286,175.266830 327.126160,172.723709 
	C316.852051,169.373108 306.318695,166.817291 295.495056,163.863495 
z"/>
<path fill="#FFFFFF" opacity="1.000000" stroke="none" 
	d="
M327.531311,0.999995 
	C318.771240,14.725060 309.608429,28.495079 300.294098,42.161819 
	C291.970276,54.375134 283.473358,66.470398 275.063965,78.625481 
	C269.251648,87.026733 263.458344,95.441124 257.342316,104.006454 
	C252.092453,97.301529 247.014450,90.537056 242.246628,83.560616 
	C224.685669,57.864834 207.231705,32.095943 189.720596,6.366053 
	C188.620316,4.749365 187.375702,3.230917 186.099121,1.333381 
	C233.020889,1.000000 280.041779,1.000000 327.531311,0.999995 
z"/>
<path fill="#D7B354" opacity="1.000000" stroke="none" 
	d="
M382.029236,285.084045 
	C389.667694,303.429230 393.850952,322.134460 392.914764,341.657227 
	C391.865845,363.531921 386.033173,384.075317 374.507629,402.927094 
	C360.852722,425.261780 342.228790,442.022797 318.606476,453.083282 
	C305.631317,459.158539 291.917664,462.619049 277.540192,464.166016 
	C252.104050,466.902771 228.215240,462.075928 205.877869,450.286743 
	C177.675446,435.402130 157.488937,413.016357 145.830521,383.072144 
	C139.662628,367.230194 136.518280,350.880127 137.085251,333.972321 
	C137.848892,311.199463 143.875687,289.940338 155.989380,270.365326 
	C169.696701,248.215164 188.277786,231.707260 211.726578,220.759521 
	C224.701019,214.702026 238.443497,211.335251 252.826340,209.798141 
	C276.850922,207.230621 299.454742,211.681763 320.895416,222.062881 
	C348.697876,235.524216 368.701935,256.883575 382.029236,285.084045 
M319.980835,258.482788 
	C299.453796,244.918503 277.235901,238.506424 252.479431,241.940475 
	C233.334900,244.596069 216.127502,251.916901 201.982239,264.793488 
	C176.761642,287.752106 165.531204,316.524780 170.091797,350.697693 
	C172.592087,369.432648 180.204132,386.306122 192.915405,400.167938 
	C215.827423,425.153748 244.383240,436.416412 278.393890,431.935364 
	C297.321442,429.441589 314.334320,421.805817 328.306671,408.949463 
	C353.101410,386.135193 364.594513,357.712067 359.882202,323.920746 
	C356.105743,296.840302 342.935486,274.986023 319.980835,258.482788 
z"/>
<path fill="#EFC75E" opacity="1.000000" stroke="none" 
	d="
M320.244385,258.730865 
	C342.935486,274.986023 356.105743,296.840302 359.882202,323.920746 
	C364.594513,357.712067 353.101410,386.135193 328.306671,408.949463 
	C314.334320,421.805817 297.321442,429.441589 278.393890,431.935364 
	C244.383240,436.416412 215.827423,425.153748 192.915405,400.167938 
	C180.204132,386.306122 172.592087,369.432648 170.091797,350.697693 
	C165.531204,316.524780 176.761642,287.752106 201.982239,264.793488 
	C216.127502,251.916901 233.334900,244.596069 252.479431,241.940475 
	C277.235901,238.506424 299.453796,244.918503 320.244385,258.730865 
z"/>
</svg>