<svg width="84" height="81" viewBox="0 0 84 81" fill="none" xmlns="http://www.w3.org/2000/svg">
<path d="M38.3067 2.87971C39.6731 -0.405457 44.3269 -0.405456 45.6933 2.87971L54.2869 23.5413C54.8629 24.9262 56.1654 25.8725 57.6605 25.9924L79.9664 27.7806C83.513 28.0649 84.9512 32.491 82.249 34.8057L65.2543 49.3635C64.1151 50.3393 63.6176 51.8704 63.9657 53.3294L69.1578 75.0962C69.9834 78.557 66.2184 81.2925 63.182 79.4379L44.085 67.7735C42.805 66.9917 41.195 66.9917 39.915 67.7735L20.818 79.4379C17.7816 81.2925 14.0166 78.5571 14.8422 75.0962L20.0343 53.3294C20.3824 51.8704 19.8849 50.3393 18.7457 49.3635L1.751 34.8057C-0.951151 32.491 0.486955 28.0649 4.03357 27.7806L26.3395 25.9924C27.8346 25.8725 29.1371 24.9262 29.7131 23.5413L38.3067 2.87971Z" fill="#C0C0C0"/>
</svg>
