<svg version="1.1" id="Layer_1" xmlns="http://www.w3.org/2000/svg" xmlns:xlink="http://www.w3.org/1999/xlink" x="0px" y="0px"
	 width="100%" viewBox="0 0 512 512" enable-background="new 0 0 512 512" xml:space="preserve">
<path fill="#FFFFFF" opacity="1.000000" stroke="none" 
	d="
M239.000000,513.000000 
	C159.710617,513.000000 80.421227,513.000000 1.065922,513.000000 
	C1.065922,342.333344 1.065922,171.666672 1.065922,1.000000 
	C14.077061,1.000000 27.069872,1.000000 40.539772,1.361470 
	C44.703426,7.270561 48.316593,12.868650 52.089912,18.356623 
	C64.933372,37.036339 77.902229,55.630104 90.694931,74.344368 
	C108.259621,100.039505 125.673340,125.837807 143.219452,151.545700 
	C151.767365,164.069809 160.468704,176.489243 168.777802,189.090546 
	C158.853577,196.817963 148.276581,203.479736 139.906815,212.248306 
	C130.258026,222.356842 121.897827,233.888062 114.152016,245.579239 
	C99.100899,268.296661 91.781960,293.989655 89.262871,320.827759 
	C88.091911,333.303101 89.205780,346.068298 90.101669,358.643829 
	C91.324654,375.810669 96.205315,392.277008 103.117798,407.892731 
	C115.549294,435.976166 133.927475,459.651398 158.679321,478.105896 
	C180.566345,494.424408 204.789993,505.453552 231.790634,510.196411 
	C234.281082,510.633850 236.600937,512.042358 239.000000,513.000000 
z"/>
<path fill="#FFFFFF" opacity="1.000000" stroke="none" 
	d="
M473.000000,0.999993 
	C486.325806,1.000000 499.651611,1.000000 512.983032,1.000000 
	C512.988708,171.562668 512.988708,342.125336 512.988708,513.000000 
	C439.312744,513.000000 365.625031,513.000000 291.537170,512.615906 
	C297.926056,510.507233 304.720367,508.803070 311.503265,507.054596 
	C343.330109,498.850281 370.246613,482.447205 392.868896,458.688049 
	C409.467499,441.255310 421.837677,421.378479 430.302094,398.786072 
	C440.359528,371.941711 443.031097,344.414612 440.024567,316.154419 
	C437.428192,291.749146 429.858643,268.981537 417.433441,247.766663 
	C409.589172,234.373245 400.230286,222.169373 389.301788,211.245422 
	C377.638763,199.587219 364.239319,190.113037 350.040527,181.646652 
	C353.688110,176.444061 357.310425,171.636322 360.699127,166.669159 
	C378.180725,141.044510 395.581635,115.364799 413.051331,89.731972 
	C428.333527,67.308769 443.706512,44.947350 458.960175,22.504808 
	C463.771576,15.425884 468.327271,8.173165 473.000000,0.999993 
z"/>
<path fill="#E4E7E7" opacity="1.000000" stroke="none" 
	d="
M349.907440,181.967957 
	C364.239319,190.113037 377.638763,199.587219 389.301788,211.245422 
	C400.230286,222.169373 409.589172,234.373245 417.433441,247.766663 
	C429.858643,268.981537 437.428192,291.749146 440.024567,316.154419 
	C443.031097,344.414612 440.359528,371.941711 430.302094,398.786072 
	C421.837677,421.378479 409.467499,441.255310 392.868896,458.688049 
	C370.246613,482.447205 343.330109,498.850281 311.503265,507.054596 
	C304.720367,508.803070 297.926056,510.507233 291.068481,512.615906 
	C273.979095,513.000000 256.958221,513.000000 239.468658,513.000000 
	C236.600937,512.042358 234.281082,510.633850 231.790634,510.196411 
	C204.789993,505.453552 180.566345,494.424408 158.679321,478.105896 
	C133.927475,459.651398 115.549294,435.976166 103.117798,407.892731 
	C96.205315,392.277008 91.324654,375.810669 90.101669,358.643829 
	C89.205780,346.068298 88.091911,333.303101 89.262871,320.827759 
	C91.781960,293.989655 99.100899,268.296661 114.152016,245.579239 
	C121.897827,233.888062 130.258026,222.356842 139.906815,212.248306 
	C148.276581,203.479736 158.853577,196.817963 169.111160,189.018005 
	C171.344543,187.892090 172.932068,186.990356 174.497513,186.051788 
	C204.044815,168.336487 236.147964,160.370377 270.464386,161.228134 
	C278.567200,161.430664 286.647491,162.536011 294.754639,163.211533 
	C294.771179,163.197021 294.813721,163.192307 294.934418,163.409119 
	C295.055115,163.625916 295.525177,163.786575 295.525177,163.786575 
	C295.525177,163.786575 296.018494,163.727997 296.413147,163.838074 
	C305.161316,166.119095 313.686249,167.791718 321.823669,170.590836 
	C331.360962,173.871460 340.561066,178.132278 349.907440,181.967957 
M335.290283,230.151611 
	C333.994049,229.407761 332.663452,228.717499 331.406708,227.912033 
	C312.171082,215.583740 290.858307,209.925919 268.286987,209.105759 
	C251.224548,208.485748 234.678543,211.641861 218.698166,217.902893 
	C189.142349,229.482697 166.917282,249.411758 152.054138,277.207336 
	C139.973404,299.799500 135.052597,324.023560 137.864059,349.786835 
	C139.337952,363.292999 142.294876,376.361053 147.948776,388.580414 
	C163.561813,422.323853 188.750595,445.991577 224.125916,458.078430 
	C243.849762,464.817535 264.021057,466.533417 284.864716,463.229187 
	C308.713654,459.448578 329.712097,449.834137 347.839111,434.391174 
	C364.502167,420.195312 376.989258,402.741699 384.663422,381.920685 
	C393.018463,359.252289 395.373779,336.109100 390.581360,312.527313 
	C383.540375,277.881134 364.967468,250.640411 335.290283,230.151611 
z"/>
<path fill="#E2574C" opacity="1.000000" stroke="none" 
	d="
M294.738129,163.226044 
	C286.647491,162.536011 278.567200,161.430664 270.464386,161.228134 
	C236.147964,160.370377 204.044815,168.336487 174.497513,186.051788 
	C172.932068,186.990356 171.344543,187.892090 169.433929,188.883514 
	C160.468704,176.489243 151.767365,164.069809 143.219452,151.545700 
	C125.673340,125.837807 108.259621,100.039505 90.694931,74.344368 
	C77.902229,55.630104 64.933372,37.036339 52.089912,18.356623 
	C48.316593,12.868650 44.703426,7.270561 41.008430,1.361470 
	C89.020897,1.000000 137.041794,1.000000 185.630554,1.333356 
	C187.375885,3.230841 188.620514,4.749261 189.720764,6.365926 
	C207.231888,32.095825 224.685883,57.864719 242.246841,83.560516 
	C247.014664,90.536919 252.092712,97.301331 257.024780,104.522675 
	C257.905457,106.618599 258.615967,108.472748 259.700958,110.072937 
	C270.457916,125.937561 281.301178,141.743698 292.042786,157.618652 
	C293.192474,159.317780 293.851501,161.348923 294.738129,163.226044 
z"/>
<path fill="#BF392C" opacity="1.000000" stroke="none" 
	d="
M294.754639,163.211533 
	C293.851501,161.348923 293.192474,159.317780 292.042786,157.618652 
	C281.301178,141.743698 270.457916,125.937561 259.700958,110.072937 
	C258.615967,108.472748 257.905457,106.618599 257.338959,104.365829 
	C263.458466,95.440872 269.251678,87.026489 275.063965,78.625298 
	C283.473297,66.470230 291.970276,54.375023 300.294098,42.161728 
	C309.608459,28.495031 318.771240,14.725036 328.000000,0.999999 
	C376.020905,1.000000 424.041779,1.000000 472.531311,0.999993 
	C468.327271,8.173165 463.771576,15.425884 458.960175,22.504808 
	C443.706512,44.947350 428.333527,67.308769 413.051331,89.731972 
	C395.581635,115.364799 378.180725,141.044510 360.699127,166.669159 
	C357.310425,171.636322 353.688110,176.444061 350.040527,181.646652 
	C340.561066,178.132278 331.360962,173.871460 321.823669,170.590836 
	C313.686249,167.791718 305.161316,166.119095 296.269653,163.643188 
	C295.454834,163.105682 295.148926,163.057037 294.813721,163.192307 
	C294.813721,163.192307 294.771179,163.197021 294.754639,163.211533 
z"/>
<path fill="#FFFFFF" opacity="1.000000" stroke="none" 
	d="
M327.531342,0.999999 
	C318.771240,14.725036 309.608459,28.495031 300.294098,42.161728 
	C291.970276,54.375023 283.473297,66.470230 275.063965,78.625298 
	C269.251678,87.026489 263.458466,95.440872 257.342560,104.006195 
	C252.092712,97.301331 247.014664,90.536919 242.246841,83.560516 
	C224.685883,57.864719 207.231888,32.095825 189.720764,6.365926 
	C188.620514,4.749261 187.375885,3.230841 186.099213,1.333356 
	C233.020889,1.000000 280.041779,1.000000 327.531342,0.999999 
z"/>
<path fill="#CDCFCF" opacity="1.000000" stroke="none" 
	d="
M335.598022,230.343643 
	C364.967468,250.640411 383.540375,277.881134 390.581360,312.527313 
	C395.373779,336.109100 393.018463,359.252289 384.663422,381.920685 
	C376.989258,402.741699 364.502167,420.195312 347.839111,434.391174 
	C329.712097,449.834137 308.713654,459.448578 284.864716,463.229187 
	C264.021057,466.533417 243.849762,464.817535 224.125916,458.078430 
	C188.750595,445.991577 163.561813,422.323853 147.948776,388.580414 
	C142.294876,376.361053 139.337952,363.292999 137.864059,349.786835 
	C135.052597,324.023560 139.973404,299.799500 152.054138,277.207336 
	C166.917282,249.411758 189.142349,229.482697 218.698166,217.902893 
	C234.678543,211.641861 251.224548,208.485748 268.286987,209.105759 
	C290.858307,209.925919 312.171082,215.583740 331.406708,227.912033 
	C332.663452,228.717499 333.994049,229.407761 335.598022,230.343643 
M323.992340,412.506317 
	C324.940521,411.837555 325.976593,411.264526 326.824036,410.486084 
	C351.749664,387.592133 364.142120,359.695618 360.040466,325.540070 
	C356.881226,299.232483 344.832794,277.562988 323.792816,261.451569 
	C302.911957,245.461975 279.275085,238.216003 252.845230,241.985870 
	C222.006744,246.384567 198.133301,261.792511 182.353470,288.626587 
	C167.698914,313.547058 164.695236,340.295654 174.184875,367.716705 
	C183.447617,394.482117 201.337570,413.841278 227.470078,425.178192 
	C242.191559,431.564728 257.722687,434.436340 273.653595,432.733551 
	C291.944366,430.778534 308.726929,424.282928 323.992340,412.506317 
z"/>
<path fill="#E2574C" opacity="1.000000" stroke="none" 
	d="
M294.934418,163.409119 
	C295.148926,163.057037 295.454834,163.105682 295.875000,163.533112 
	C296.018494,163.727997 295.525177,163.786575 295.525177,163.786575 
	C295.525177,163.786575 295.055115,163.625916 294.934418,163.409119 
z"/>
<path fill="#E4E7E7" opacity="1.000000" stroke="none" 
	d="
M323.729431,412.752319 
	C308.726929,424.282928 291.944366,430.778534 273.653595,432.733551 
	C257.722687,434.436340 242.191559,431.564728 227.470078,425.178192 
	C201.337570,413.841278 183.447617,394.482117 174.184875,367.716705 
	C164.695236,340.295654 167.698914,313.547058 182.353470,288.626587 
	C198.133301,261.792511 222.006744,246.384567 252.845230,241.985870 
	C279.275085,238.216003 302.911957,245.461975 323.792816,261.451569 
	C344.832794,277.562988 356.881226,299.232483 360.040466,325.540070 
	C364.142120,359.695618 351.749664,387.592133 326.824036,410.486084 
	C325.976593,411.264526 324.940521,411.837555 323.729431,412.752319 
z"/>
</svg>